<?xml version="1.0" encoding="UTF-8"?>
<svg width="83px" height="48px" viewBox="0 0 83 48" version="1.1" xmlns="http://www.w3.org/2000/svg" xmlns:xlink="http://www.w3.org/1999/xlink">
    <title>2D4C2523-7703-4C0C-935F-571C20E23EF6@1.5x</title>
    <g id="list-empty-state-✄-Assets" stroke="none" stroke-width="1" fill="none" fill-rule="evenodd">
        <g id="list-empty-state-Assets" transform="translate(-36.000000, -273.000000)">
            <g id="list-empty-state-Akindo-/-Lists-Empty-State" transform="translate(17.000000, 237.000000)">
                <g id="list-empty-state-✱-/-Glyph-Icons-/-72px-/-_Rounded" transform="translate(19.500000, 37.429688)"></g>
                <g id="list-empty-state-Group" transform="translate(19.500000, 36.000000)" fill-rule="nonzero">
                    <path d="M4.51171875,9.64485981 C7.08984375,9.64485981 9.23828125,7.40186916 9.23828125,4.93457944 C9.23828125,2.33580406 7.23545723,0.155222421 4.77681809,0.00792758188 L4.51171875,0 L4.51171875,0 C2.1484375,0 0,2.24299065 0,4.93457944 C0,7.40186916 2.1484375,9.64485981 4.51171875,9.64485981 Z" id="list-empty-state-Path" fill="#FE8D70"></path>
                    <path d="M77.9882812,9.64485981 C80.3515625,9.64485981 82.5,7.40186916 82.5,4.93457944 C82.5,2.33911883 80.502282,0.16078581 78.2405798,0.00850113076 L77.9882812,0 L77.9882812,0 L22.9882813,0 C20.4101563,0 18.2617188,2.24299065 18.2617188,4.93457944 C18.2617188,7.40186916 20.4101563,9.64485981 22.9882813,9.64485981 L77.9882812,9.64485981 Z" id="list-empty-state-Path" fill="#82B4FF"></path>
                    <path d="M4.51171875,28.7102804 C7.08984375,28.7102804 9.23828125,26.6915888 9.23828125,24 C9.23828125,21.4045394 7.24056322,19.4347702 4.78622392,19.2973829 L4.51171875,19.2897196 L4.51171875,19.2897196 C2.1484375,19.2897196 0,21.3084112 0,24 C0,26.6915888 2.1484375,28.7102804 4.51171875,28.7102804 Z" id="list-empty-state-Path" fill="#FE8D70"></path>
                    <path d="M77.9882812,28.7102804 C80.3515625,28.7102804 82.5,26.6915888 82.5,24 C82.5,21.4045394 80.502282,19.4347702 78.2405798,19.2973829 L77.9882812,19.2897196 L77.9882812,19.2897196 L22.9882813,19.2897196 C20.4101563,19.2897196 18.2617188,21.3084112 18.2617188,24 C18.2617188,26.6915888 20.4101563,28.7102804 22.9882813,28.7102804 L77.9882812,28.7102804 Z" id="list-empty-state-Path" fill="#82B4FF"></path>
                    <path d="M4.51171875,48 C7.08984375,48 9.23828125,45.7570093 9.23828125,43.0654206 C9.23828125,40.6862483 7.24056322,38.5156399 4.78622392,38.3636311 L4.51171875,38.3551402 L4.51171875,38.3551402 C2.1484375,38.3551402 0,40.5981308 0,43.0654206 C0,45.7570093 2.1484375,48 4.51171875,48 Z" id="list-empty-state-Path" fill="#FE8D70"></path>
                    <path d="M77.9882812,48 C80.3515625,48 82.5,45.7570093 82.5,43.0654206 C82.5,40.6862483 80.502282,38.5156399 78.2405798,38.3636311 L77.9882812,38.3551402 L77.9882812,38.3551402 L22.9882813,38.3551402 C20.4101563,38.3551402 18.2617188,40.5981308 18.2617188,43.0654206 C18.2617188,45.7570093 20.4101563,48 22.9882813,48 L77.9882812,48 Z" id="list-empty-state-Path" fill="#82B4FF"></path>
                </g>
            </g>
        </g>
    </g>
</svg>