<?xml version="1.0" encoding="utf-8"?>
<!DOCTYPE svg PUBLIC "-//W3C//DTD SVG 1.1//EN" "http://www.w3.org/Graphics/SVG/1.1/DTD/svg11.dtd">
<?xml-stylesheet type="text/css" href="../css/m4svg.css" ?>
<svg width="16" height="16" viewBox="0 0 512 512" xmlns="http://www.w3.org/2000/svg" xmlns:xlink="http://www.w3.org/1999/xlink" class="icon" id="user">
<rect x="0" y="0" fill="#7ea3d0" width="512" height="512"/>
<path fill="#bfd7f4" d="M317.763,368.629c-12.322-1.961-12.603-35.842-12.603-35.842s36.206-35.843,44.098-84.041
	c21.228,0,34.339-51.24,13.108-69.269C363.253,160.499,389.651,30.5,256,30.5c-133.65,0-107.25,129.999-106.366,148.978
	c-21.229,18.028-8.12,69.269,13.108,69.269c7.89,48.198,44.098,84.041,44.098,84.041s-0.281,33.881-12.603,35.842
	C154.547,374.945,6.334,440.316,6.334,512H256h249.667C505.667,440.316,357.455,374.945,317.763,368.629z"/>
<path fill="#7ea3d0" d="M203,250c0,0,31,10,52.5,10s54-10,54-10s-31,21.25-53.5,21.25S205.5,250,203,250z"/>
</svg>