<svg width="144" height="144" viewBox="0 0 144 144" fill="none" xmlns="http://www.w3.org/2000/svg">
<path d="M114 18H30C23.4 18 18 23.4 18 30V114C18 120.6 23.4 126 30 126H114C120.6 126 126 120.6 126 114V30C126 23.4 120.6 18 114 18Z" class="primary--fill-5"/>
<path d="M58.3636 60.9091H78V54.3636C78 51.6364 77.0455 49.3182 75.1364 47.4091C73.2273 45.5 70.9091 44.5455 68.1818 44.5455C65.4545 44.5455 63.1364 45.5 61.2273 47.4091C59.3182 49.3182 58.3636 51.6364 58.3636 54.3636V60.9091ZM48.5455 106.727C46.7455 106.727 45.2045 106.086 43.9227 104.805C42.6409 103.523 42 101.982 42 100.182V67.4545C42 65.6545 42.6409 64.1136 43.9227 62.8318C45.2045 61.55 46.7455 60.9091 48.5455 60.9091H51.8182V54.3636C51.8182 49.8364 53.4136 45.9773 56.6045 42.7864C59.7955 39.5955 63.6545 38 68.1818 38C72.7091 38 76.5682 39.5955 79.7591 42.7864C82.95 45.9773 84.5455 49.8364 84.5455 54.3636V60.9091H87.8182C89.6182 60.9091 91.1591 61.55 92.4409 62.8318C93.7227 64.1136 94.3636 65.6545 94.3636 67.4545V67.9455C94.3636 68.8727 93.9955 69.6364 93.2591 70.2364C92.5227 70.8364 91.6636 71.0545 90.6818 70.8909C90.2455 70.8364 89.7818 70.7955 89.2909 70.7682C88.8 70.7409 88.3091 70.7273 87.8182 70.7273C81.4364 70.7273 76.0227 72.95 71.5773 77.3955C67.1318 81.8409 64.9091 87.2545 64.9091 93.6364C64.9091 95.2182 65.0864 96.7864 65.4409 98.3409C65.7955 99.8955 66.2727 101.382 66.8727 102.8C67.3091 103.727 67.2682 104.614 66.75 105.459C66.2318 106.305 65.5091 106.727 64.5818 106.727H48.5455Z" class="primary--fill-2"/>
<path d="M86.4079 103.829C85.0958 105.305 82.7996 105.305 81.4875 103.829L74.1071 96.4489C72.631 95.1368 72.631 92.8406 74.1071 91.5286C75.4192 90.2165 77.7153 90.2165 79.0274 91.5286L83.9477 96.4489L96.2485 83.9841C97.7246 82.672 99.8567 82.672 101.333 83.9841C102.645 85.4602 102.645 87.5923 101.333 89.0684L86.4079 103.829Z" class="secondary--fill-3"/>
</svg>
