<?xml version="1.0" encoding="UTF-8"?>
<svg width="320px" height="320px" viewBox="0 0 320 320" version="1.1" xmlns="http://www.w3.org/2000/svg" xmlns:xlink="http://www.w3.org/1999/xlink">
    
    <g id="Symbols" stroke="none" stroke-width="1" fill="none" fill-rule="evenodd">
        <g id="Akindo-Illustrations-/-Standard-/-Man-Searching">
            <rect id="Base" x="0" y="0" width="320" height="320"></rect>
            <g id="Man-Searching" transform="translate(75.000000, 55.000000)">
                <polygon id="Path" fill="#BE906B" points="135.438743 68.4995619 138.381743 73.6665619 146.791743 68.8895619 143.847743 63.7205619"></polygon>
                <path d="M143.057743,70.2575619 C142.511743,70.1065619 142.190743,69.5455619 142.341743,69.0015619 L143.914743,63.2925619 C144.066743,62.7505619 144.628743,62.4295619 145.171743,62.5775619 L148.135743,63.3925619 C148.675743,63.5445619 148.996743,64.1035619 148.847743,64.6465619 L147.274743,70.3575619 C147.124743,70.9025619 146.562743,71.2195619 146.014743,71.0705619 L143.057743,70.2575619 Z" id="Path" fill="#BE906B"></path>
                <path d="M146.904743,72.0505619 C146.904743,72.0505619 150.559743,58.7685619 150.578743,58.6975619 L149.329743,58.3555619 L149.502743,57.0725619 C149.239743,57.0355619 148.356743,57.0095619 148.038743,58.1615619 L144.404743,71.3635619 L146.904743,72.0505619 Z" id="Path" class="primary--fill"></path>
                <path d="M146.904743,72.0505619 C146.904743,72.0505619 150.559743,58.7685619 150.578743,58.6975619 L149.329743,58.3555619 L149.502743,57.0725619 C149.239743,57.0355619 148.356743,57.0095619 148.038743,58.1615619 L144.404743,71.3635619 L146.904743,72.0505619 Z" id="Path" fill-opacity="0.3" fill="#000000"></path>
                <path d="M148.408743,65.5335619 C147.877743,65.3895619 147.329743,65.6995619 147.183743,66.2305619 C147.038743,66.7595619 147.348743,67.3075619 147.878743,67.4535619 L150.004743,68.0395619 C150.537743,68.1855619 151.084743,67.8775619 151.233743,67.3455619 L151.232743,67.3455619 C151.378743,66.8145619 151.066743,66.2645619 150.534743,66.1195619 L148.408743,65.5335619 Z" id="Path" fill="#BE906B"></path>
                <path d="M148.937743,63.6135619 C148.406743,63.4685619 147.858743,63.7785619 147.712743,64.3085619 C147.567743,64.8395619 147.877743,65.3865619 148.408743,65.5335619 L150.533743,66.1185619 C151.066743,66.2645619 151.614743,65.9565619 151.762743,65.4245619 L151.760743,65.4245619 C151.907743,64.8945619 151.594743,64.3445619 151.063743,64.1995619 L148.937743,63.6135619 Z" id="Path" fill="#BE906B"></path>
                <path d="M146.652743,68.1485619 C146.508743,68.6805619 146.820743,69.2255619 147.348743,69.3725619 L148.932743,69.8085619 C149.463743,69.9535619 150.010743,69.6425619 150.159743,69.1145619 C150.305743,68.5845619 149.992743,68.0355619 149.462743,67.8905619 L147.878743,67.4535619 C147.347743,67.3075619 146.799743,67.6175619 146.652743,68.1485619 Z" id="Path" fill="#BE906B"></path>
                <path d="M147.348743,69.3725619 C146.819743,69.2255619 146.269743,69.5365619 146.123743,70.0685619 C145.979743,70.5975619 146.287743,71.1475619 146.817743,71.2925619 L147.623743,71.5135619 C148.153743,71.6585619 148.700743,71.3495619 148.849743,70.8185619 C148.991743,70.2885619 148.682743,69.7385619 148.151743,69.5945619 L147.348743,69.3725619 Z" id="Path" fill="#BE906B"></path>
                <path d="M144.022743,64.0335619 C144.297743,64.5115619 144.903743,64.6775619 145.380743,64.4075619 L148.284743,62.7605619 C148.762743,62.4885619 148.930743,61.8795619 148.660743,61.4015619 C148.387743,60.9235619 147.778743,60.7575619 147.299743,61.0285619 L144.397743,62.6755619 C143.917743,62.9465619 143.749743,63.5535619 144.022743,64.0335619 Z" id="Path" fill="#BE906B"></path>
                <path d="M81.7737427,205.527562 C82.2877427,206.511562 84.9787427,207.138562 86.9447427,206.844562 C88.5597427,206.607562 90.7097427,208.352562 87.9307427,209.280562 C84.4877427,210.429562 80.9537427,210.014562 79.8747427,208.646562 C79.8757427,209.192562 79.8787427,209.818562 79.8787427,209.818562 L75.5727427,209.819562 L76.0207427,205.527562 L81.7737427,205.527562 Z" id="Path" fill="#002C52"></path>
                <path d="M43.9577427,205.514562 C44.4897427,206.488562 47.1937427,207.057562 49.1537427,206.722562 C50.7657427,206.449562 52.9527427,208.149562 50.1887427,209.136562 C46.7727427,210.360562 43.2337427,210.019562 42.1247427,208.674562 C42.1367427,209.223562 42.1497427,209.846562 42.1497427,209.846562 L37.8507427,209.940562 L38.2057427,205.638562 L43.9577427,205.514562 Z" id="Path" fill="#002C52"></path>
                <path d="M107.246743,34.4636619 C106.122743,61.8565619 105.581743,93.0145619 105.581743,93.0145619 C105.581743,93.0145619 126.770743,82.6195619 143.008743,72.9725619 L139.194743,64.3695619 C127.752743,68.9165619 118.135743,71.9305619 118.135743,71.9305619 C118.135743,71.9305619 120.639743,54.2335619 123.545743,36.4185619 C119.180743,35.9832619 110.081743,34.7819619 107.246743,34.4636619 Z" id="Path" class="primary--fill"></path>
                <path d="M82.5137427,107.732562 C83.5007427,141.812562 84.8577427,175.436562 81.8707427,204.240562 C80.3527427,204.240562 81.8707427,204.208562 75.9557427,204.219562 C75.5077427,173.093562 64.3817427,138.002562 55.4937427,107.672562 C50.1957427,89.5755619 81.9667427,88.9475619 82.5137427,107.732562 Z" id="Path" fill="#002C52"></path>
                <path d="M82.5137427,107.732562 C83.5007427,141.812562 84.8577427,175.436562 81.8707427,204.240562 C80.3527427,204.240562 81.8707427,204.208562 75.9557427,204.219562 C75.5077427,173.093562 64.3817427,138.002562 55.4937427,107.672562 C50.1957427,89.5755619 81.9667427,88.9475619 82.5137427,107.732562 Z" id="Path" fill-opacity="0.3" fill="#FFFFFF"></path>
                <path d="M58.8837427,108.291562 C53.7607427,146.263562 46.4207427,175.203562 43.9177427,204.050562 C42.4017427,204.079562 43.9177427,204.020562 38.0057427,204.131562 C37.0357427,173.014562 36.4927427,143.748562 31.8667427,108.109562 C29.4427427,89.4085619 61.3977427,89.6695619 58.8837427,108.291562 Z" id="Path" fill="#002C52"></path>
                <path d="M58.8837427,108.291562 C53.7607427,146.263562 46.4207427,175.203562 43.9177427,204.050562 C42.4017427,204.079562 43.9177427,204.020562 38.0057427,204.131562 C37.0357427,173.014562 36.4927427,143.748562 31.8667427,108.109562 C29.4427427,89.4085619 61.3977427,89.6695619 58.8837427,108.291562 Z" id="Path" fill-opacity="0.3" fill="#FFFFFF"></path>
                <path d="M123.545743,36.4186619 C115.357743,47.4275619 86.6557427,81.9325619 85.1377427,112.834562 C71.6767427,110.006562 41.3857427,106.063562 29.4737427,106.008562 C31.7937427,50.3365619 81.7617427,1.9052619 81.7617427,1.9052619 L123.545743,36.4186619 Z" id="Path" class="primary--fill"></path>
                <path d="M108.759743,30.9418619 C111.112743,28.4320619 114.083743,30.7722619 112.186743,33.1857619 C106.727743,40.1210619 98.9557427,65.4715619 102.252743,101.528562 C99.5447427,104.442562 95.3897427,108.911562 95.3897427,108.911562 C95.3897427,108.911562 89.9647427,103.830562 88.1947427,101.853562 C90.2057427,61.1665619 100.752743,39.4796619 108.759743,30.9418619 Z" id="Path" class="secondary--fill"></path>
                <polygon id="Path" class="secondary--fill" points="111.453743 26.3515619 115.357743 29.4588619 113.065743 33.9015619 108.115743 30.3332619"></polygon>
                <path d="M132.119743,18.8198619 C133.347743,15.6088619 132.839743,11.9979619 129.812743,8.9796619 C126.378743,5.5503619 124.013743,5.3527619 119.294743,8.5198619 C116.720743,10.2503619 104.830743,15.9771619 101.636743,18.2210619 L117.667743,31.5040619 C119.362743,29.9040619 121.604743,28.1613619 123.673743,26.5564619 C124.620743,26.4235619 125.438743,25.8759619 125.385743,25.1503619 C126.048743,25.2418619 126.615743,25.1576619 126.897743,24.4308619 C127.088743,23.9381619 127.999743,23.0296619 127.999743,23.0296619 L129.650743,24.6783619 C129.650743,24.6783619 130.892743,22.0344619 132.119743,18.8198619 Z" id="Path" fill="#BE906B"></path>
                <path d="M130.081743,18.7954619 C129.830743,19.2600619 129.253743,19.4381619 128.786743,19.1905619 C128.321743,18.9442619 128.145743,18.3661619 128.393743,17.8978619 C128.641743,17.4344619 129.219743,17.2551619 129.686743,17.5027619 C130.150743,17.7527619 130.329743,18.3308619 130.081743,18.7954619 Z" id="Path" fill="#000000"></path>
                <path d="M128.521743,17.2405619 C128.272743,17.7051619 127.693743,17.8807619 127.228743,17.6332619 C126.762743,17.3893619 126.585743,16.8076619 126.834743,16.3442619 C127.082743,15.8759619 127.659743,15.6990619 128.126743,15.9503619 C128.593743,16.1954619 128.767743,16.7722619 128.521743,17.2405619 Z" id="Path" fill="#000000"></path>
                <path d="M125.067743,5.1600619 C126.444743,3.9795619 128.788743,4.4880619 129.669743,6.1063619 C130.551743,7.7210619 131.941743,8.5356619 132.489743,7.8185619 C132.616743,9.7588619 130.548743,11.0771619 128.863743,10.6393619 C127.174743,10.2015619 124.461743,7.4588619 124.013743,6.9161619 C123.557743,7.8161619 119.980743,9.2783619 119.294743,8.5197619 C119.416743,6.2136619 123.096743,3.3002619 125.067743,5.1600619 Z" id="Path" fill="#59443B"></path>
                <path d="M73.5447427,0.719861896 C35.7097427,17.8417619 15.2717427,41.7466619 3.21264269,83.9455619 L9.37474269,85.9695619 C26.0687427,50.6385619 57.1417427,26.5344619 82.3747427,19.6100619 C92.4047427,16.8600619 84.2207427,-4.1118381 73.5447427,0.719861896 Z" id="Path" class="primary--fill"></path>
                <path d="M8.56884269,86.0415619 C8.02914269,86.3115619 7.81544269,86.9675619 8.08654269,87.5055619 L9.68134269,90.6585619 C9.95244269,91.1965619 10.6082427,91.4085619 11.1431427,91.1405619 L11.1480427,91.1385619 C11.6827427,90.8685619 11.8987427,90.2145619 11.6267427,89.6775619 L10.0330427,86.5235619 C9.76194269,85.9855619 9.10494269,85.7715619 8.56884269,86.0415619 Z" id="Path" fill="#BE906B"></path>
                <path d="M1.79984269,84.6575619 C1.99404269,84.0705619 2.62534269,83.7525619 3.21274269,83.9455619 L9.37484269,85.9695619 C9.95984269,86.1665619 10.2785427,86.7955619 10.0892427,87.3805619 L9.03654269,90.5695619 C8.84124269,91.1525619 8.21104269,91.4725619 7.62484269,91.2795619 L1.46154269,89.2535619 C0.874142689,89.0615619 0.556642689,88.4295619 0.749642689,87.8425619 L1.79984269,84.6575619 Z" id="Path" fill="#BE906B"></path>
                <path d="M6.96414269,89.8885619 C7.15344269,89.3175619 6.84204269,88.6985619 6.26924269,88.5145619 C5.69774269,88.3255619 5.08224269,88.6355619 4.89174269,89.2065619 L4.19934269,91.3125619 C4.01004269,91.8845619 4.31904269,92.5005619 4.89294269,92.6895619 L4.89294269,92.6885619 C5.46574269,92.8775619 6.08364269,92.5665619 6.27174269,91.9955619 L6.96414269,89.8885619 Z" id="Path" fill="#BE906B"></path>
                <path d="M9.03654269,90.5695619 C9.22334269,89.9995619 8.91434269,89.3835619 8.34164269,89.1945619 C7.77134269,89.0065619 7.15344269,89.3145619 6.96414269,89.8885619 L6.27174269,91.9955619 C6.08364269,92.5665619 6.39134269,93.1795619 6.96414269,93.3695619 C7.53814269,93.5585619 8.15474269,93.2455619 8.34164269,92.6755619 L9.03654269,90.5695619 Z" id="Path" fill="#BE906B"></path>
                <path d="M4.19814269,87.8315619 C3.62424269,87.6425619 3.00994269,87.9535619 2.82194269,88.5245619 L2.12704269,90.6335619 C1.94024269,91.2025619 2.25044269,91.8195619 2.82194269,92.0075619 C3.39344269,92.1965619 4.01004269,91.8845619 4.19814269,91.3135619 L4.89174269,89.2065619 C5.08104269,88.6355619 4.77084269,88.0205619 4.19814269,87.8315619 Z" id="Path" fill="#BE906B"></path>
                <path d="M2.82194269,88.5245619 C3.00994269,87.9535619 2.69984269,87.3385619 2.12714269,87.1515619 C1.55564269,86.9635619 0.937742689,87.2695619 0.749642689,87.8425619 L0.0548426889,89.9515619 C-0.133257311,90.5225619 0.178142689,91.1365619 0.749642689,91.3275619 C1.32114269,91.5125619 1.94024269,91.2025619 2.12714269,90.6335619 L2.82194269,88.5245619 Z" id="Path" fill="#BE906B"></path>
                <path d="M168.034743,47.7295619 C165.806743,55.8215619 157.433743,60.5785619 149.329743,58.3535619 C141.225743,56.1305619 136.463743,47.7675619 138.689743,39.6747619 C140.916743,31.5820619 149.291743,26.8259619 157.395743,29.0491619 C165.498743,31.2735619 170.261743,39.6369619 168.034743,47.7295619 Z" id="Path" class="primary--fill"></path>
                <path d="M168.034743,47.7295619 C165.806743,55.8215619 157.433743,60.5785619 149.329743,58.3535619 C141.225743,56.1305619 136.463743,47.7675619 138.689743,39.6747619 C140.916743,31.5820619 149.291743,26.8259619 157.395743,29.0491619 C165.498743,31.2735619 170.261743,39.6369619 168.034743,47.7295619 Z" id="Path" fill-opacity="0.8" fill="#FFFFFF"></path>
                <path d="M153.353743,29.1490619 C154.655743,29.1490619 155.955743,29.3259619 157.223743,29.6734619 C160.975743,30.7027619 164.100743,33.1307619 166.025743,36.5088619 C167.948743,39.8868619 168.441743,43.8100619 167.410743,47.5575619 C165.676743,53.8555619 159.903743,58.2535619 153.370743,58.2535619 C152.069743,58.2535619 150.768743,58.0785619 149.501743,57.7305619 C141.755743,55.6035619 137.186743,47.5815619 139.314743,39.8466619 C141.047743,33.5478619 146.821743,29.1490619 153.353743,29.1490619 Z M153.370743,59.5495619 C160.485743,59.5475619 166.771743,54.7585619 168.659743,47.9005619 C169.783743,43.8198619 169.247743,39.5466619 167.151743,35.8685619 C165.057743,32.1905619 161.652743,29.5466619 157.566743,28.4259619 C156.187743,28.0466619 154.771743,27.8551619 153.353743,27.8551619 C146.239743,27.8551619 139.952743,32.6454619 138.065743,39.5027619 C135.746743,47.9275619 140.722743,56.6635619 149.158743,58.9785619 C150.536743,59.3565619 151.953743,59.5495619 153.370743,59.5495619 Z" id="Shape" class="primary--fill"></path>
                <path d="M153.353743,29.1490619 C154.655743,29.1490619 155.955743,29.3259619 157.223743,29.6734619 C160.975743,30.7027619 164.100743,33.1307619 166.025743,36.5088619 C167.948743,39.8868619 168.441743,43.8100619 167.410743,47.5575619 C165.676743,53.8555619 159.903743,58.2535619 153.370743,58.2535619 C152.069743,58.2535619 150.768743,58.0785619 149.501743,57.7305619 C141.755743,55.6035619 137.186743,47.5815619 139.314743,39.8466619 C141.047743,33.5478619 146.821743,29.1490619 153.353743,29.1490619 Z M153.370743,59.5495619 C160.485743,59.5475619 166.771743,54.7585619 168.659743,47.9005619 C169.783743,43.8198619 169.247743,39.5466619 167.151743,35.8685619 C165.057743,32.1905619 161.652743,29.5466619 157.566743,28.4259619 C156.187743,28.0466619 154.771743,27.8551619 153.353743,27.8551619 C146.239743,27.8551619 139.952743,32.6454619 138.065743,39.5027619 C135.746743,47.9275619 140.722743,56.6635619 149.158743,58.9785619 C150.536743,59.3565619 151.953743,59.5495619 153.370743,59.5495619 Z" id="Shape" fill-opacity="0.3" fill="#000000"></path>
                <path d="M163.733743,39.9087619 C163.817743,39.9087619 163.904743,39.8917619 163.988743,39.8563619 C164.317743,39.7148619 164.469743,39.3343619 164.328743,39.0063619 C163.215743,36.4197619 161.222743,34.3051619 158.715743,33.0514619 C158.395743,32.8917619 158.006743,33.0209619 157.846743,33.3404619 C157.684743,33.6599619 157.814743,34.0490619 158.135743,34.2087619 C160.369743,35.3258619 162.144743,37.2112619 163.137743,39.5173619 C163.242743,39.7624619 163.481743,39.9087619 163.733743,39.9087619 Z" id="Path" fill="#FFFFFF"></path>
                <path d="M102.541743,209.990562 L24.0237427,209.990562 C23.6147427,209.990562 23.2827427,210.214562 23.2827427,210.490562 C23.2827427,210.766562 23.6147427,210.990562 24.0237427,210.990562 L102.541743,210.990562 C102.950743,210.990562 103.282743,210.766562 103.282743,210.490562 C103.282743,210.214562 102.950743,209.990562 102.541743,209.990562 Z" id="Path" fill-opacity="0.1" fill="#000000" fill-rule="nonzero"></path>
            </g>
        </g>
    </g>
</svg>